<svg aria-hidden="true" style="position: absolute; width: 0; height: 0; overflow: hidden;" version="1.1" xmlns="http://www.w3.org/2000/svg" xmlns:xlink="http://www.w3.org/1999/xlink">
<defs>
<symbol id="icon-arrow" viewBox="0 0 48 32">
<path fill="#ecd979" style="fill: var(--color1, #ecd979)" d="M40.165 18.935c-0.261-1.955-0.429-3.7-0.506-5.235-0.033-1.56 0.026-2.91 0.178-4.050l-37.94 21.905-1.795-3.109 37.94-21.905c-1.092-0.488-2.305-1.137-3.639-1.945-1.291-0.834-2.704-1.827-4.238-2.981l2.278-1.315c4.813 2.024 9.215 3.036 13.206 3.035l0.769 1.332c-2.025 3.406-3.35 7.724-3.975 12.954l-2.278 1.315z"></path>
</symbol>
<symbol id="icon-star" viewBox="0 0 32 32">
<path fill="#ecd979" style="fill: var(--color1, #ecd979)" d="M15.434 0.333c0.251-0.437 0.881-0.437 1.133 0l1.84 3.203c0.19 0.33 0.621 0.429 0.935 0.214l3.081-2.107c0.418-0.286 0.987-0.008 1.020 0.496l0.239 3.642c0.025 0.383 0.374 0.662 0.754 0.602l3.69-0.584c0.504-0.080 0.9 0.423 0.706 0.894l-1.386 3.36c-0.148 0.359 0.048 0.767 0.421 0.876l3.555 1.036c0.493 0.144 0.635 0.773 0.252 1.115l-2.731 2.433c-0.291 0.26-0.291 0.715 0 0.975l2.731 2.433c0.383 0.341 0.241 0.971-0.252 1.115l-3.555 1.036c-0.373 0.109-0.569 0.517-0.421 0.876l1.386 3.36c0.194 0.471-0.202 0.974-0.706 0.894l-3.69-0.584c-0.38-0.060-0.729 0.219-0.754 0.602l-0.239 3.642c-0.033 0.505-0.603 0.782-1.020 0.496l-3.081-2.107c-0.314-0.215-0.745-0.116-0.935 0.214l-1.84 3.203c-0.251 0.437-0.881 0.437-1.133 0l-1.84-3.203c-0.19-0.33-0.621-0.429-0.935-0.214l-3.081 2.107c-0.418 0.286-0.987 0.009-1.020-0.496l-0.239-3.642c-0.025-0.383-0.374-0.662-0.754-0.602l-3.69 0.584c-0.504 0.080-0.9-0.423-0.706-0.894l1.386-3.36c0.148-0.359-0.048-0.767-0.421-0.876l-3.555-1.036c-0.493-0.144-0.635-0.773-0.252-1.115l2.731-2.433c0.291-0.26 0.291-0.715 0-0.975l-2.731-2.433c-0.383-0.341-0.241-0.971 0.252-1.115l3.555-1.036c0.373-0.109 0.569-0.517 0.421-0.876l-1.386-3.36c-0.194-0.471 0.202-0.974 0.706-0.894l3.69 0.584c0.38 0.060 0.729-0.219 0.754-0.602l0.239-3.642c0.033-0.505 0.603-0.782 1.020-0.496l3.081 2.107c0.314 0.215 0.745 0.116 0.935-0.214l1.84-3.203z"></path>
</symbol>
</defs>
</svg>
