<svg xmlns="http://www.w3.org/2000/svg" aria-hidden="true" style="position:absolute;width:0;height:0;overflow:hidden"><defs><symbol id="icon-closebtn" viewBox="0 0 32 32"><path stroke-linecap="round" stroke-linejoin="round" stroke-width="2.182" d="M24 8 8 24M8 8l16 16"/></symbol><symbol id="icon-facebook" viewBox="0 0 32 32"><path fill="#fcf9f9" d="M19.52 4.64h.96v3.6h-1.2c-.48 0-.96 0-1.2.24s-.24.48-.24 1.04v1.28h2.64v3.04h-2.64v13.2h-4.08V13.76H11.6v-3.04h2.16V9.68c0-1.76.24-3.04.72-3.6.72-1.04 2.16-1.52 4.32-1.52.24.08.48.08.72.08z" opacity=".8" style="fill:var(--color1, #fcf9f9)"/></symbol><symbol id="icon-instagram" viewBox="0 0 32 32"><path fill="#fcf9f9" d="M28.718 10.755a9.242 9.242 0 0 0-.617-3.207l.021.063a6.588 6.588 0 0 0-3.7-3.722l-.044-.015a9.192 9.192 0 0 0-3.097-.596h-.01C19.904 3.217 19.47 3.2 16 3.2c-3.472 0-3.917 0-5.274.078a9.384 9.384 0 0 0-3.106.597 6.584 6.584 0 0 0-3.73 3.693l-.015.044a9.103 9.103 0 0 0-.596 3.091v.009c-.061 1.367-.08 1.8-.08 5.265 0 3.466 0 3.909.08 5.265a9.337 9.337 0 0 0 .618 3.168l-.022-.064a6.59 6.59 0 0 0 3.7 3.721l.044.015c.917.369 1.98.6 3.091.637h.015c1.369.062 1.802.08 5.274.08 3.471 0 3.917 0 5.274-.08a9.383 9.383 0 0 0 3.172-.616l-.064.022a6.594 6.594 0 0 0 3.727-3.693l.016-.044c.374-.993.574-2.04.595-3.103.062-1.366.08-1.799.08-5.266-.003-3.465-.003-3.905-.082-5.264zM15.989 22.531h-.006a6.566 6.566 0 0 1-6.566-6.561 6.564 6.564 0 0 1 6.565-6.561h.007c3.629 0 6.571 2.937 6.571 6.56a6.567 6.567 0 0 1-6.567 6.562h-.005zm6.834-11.835a1.53 1.53 0 1 1 0-3.06l.042-.001a1.53 1.53 0 1 1 0 3.06l-.044-.001h.002z" opacity=".8" style="fill:var(--color1, #fcf9f9)"/><path fill="#fcf9f9" d="M15.992 19.976a4.004 4.004 0 0 0 0-8.008 4.004 4.004 0 0 0 0 8.008z" opacity=".8" style="fill:var(--color1, #fcf9f9)"/></symbol><symbol id="icon-menubtn" viewBox="0 0 32 32"><path fill="none" stroke="#ecd979" stroke-linecap="round" stroke-width="2.182" d="M5.961 8.628h24.948M5.961 21.851h24.948M13.612 15.24h17.297" style="stroke:var(--color2, #ecd979)"/></symbol><symbol id="icon-youtube" viewBox="0 0 32 32"><path fill="#fcf9f9" d="M24.24 6c-1.36-.08-4.16-.16-8.4-.16h-.56c-4.08 0-6.8.08-8.16.24-1.84.16-3.12.64-3.84 1.28-.64.56-1.12 1.6-1.28 2.96-.08.88-.16 2.72-.16 5.52v.4c0 2.64.08 4.48.24 5.36.24 1.28.64 2.24 1.44 2.8.8.64 2.16 1.04 4.08 1.2 1.36.08 4.16.16 8.4.16h.56c4.08 0 6.8-.08 8.16-.24 1.84-.16 3.12-.64 3.84-1.28.64-.56 1.12-1.6 1.28-2.96.08-.88.16-2.72.16-5.52v-.4c0-2.64-.08-4.48-.24-5.36-.24-1.28-.64-2.24-1.44-2.8-.8-.64-2.16-1.04-4.08-1.2zm-3.12 9.84-8.8 5.28V10.56l8.8 5.28z" opacity=".8" style="fill:var(--color1, #fcf9f9)"/></symbol></defs></svg>