<svg xmlns="http://www.w3.org/2000/svg" width="44" height="40" fill="none"><g fill="#ECD979" clip-path="url(#a)"><path d="M43.941 39.456H42.57v-1.39h1.372v1.39Zm-1.372 0h-1.373v-1.39h1.373v1.39Zm-5.489 0h-1.373v-1.39h1.372v1.39Zm-1.373 0h-1.372v-1.39h1.372v1.39Zm-1.372 0h-1.373v-1.39h1.373v1.39Zm-8.235 0h-1.372v-1.39h1.373v1.39Zm-8.233 0h-1.372v-1.39h1.372v1.39Zm-8.233 0H8.26v-1.39h1.373v1.39Z"/><path d="M8.261 39.456H6.889v-1.39H8.26v1.39Zm-1.372 0H5.517v-1.39h1.372v1.39Zm-5.489 0H.027v-1.39H1.4v1.39Zm42.541-1.391H42.57v-1.391h1.372v1.391Zm-5.489 0H37.08v-1.391h1.372v1.391Zm-1.372 0h-1.373v-1.391h1.372v1.391Zm-1.373 0h-1.372v-1.391h1.372v1.391Zm-9.607 0h-1.372v-1.391h1.373v1.391Zm-1.372 0h-1.372v-1.391h1.372v1.391Zm-5.488 0h-1.373v-1.391h1.372v1.391ZM17.867 38.065h-1.372v-1.391h1.372v1.391Zm-9.606 0H6.889v-1.391H8.26v1.391Zm-1.372 0H5.517v-1.391h1.372v1.391Zm-1.373 0H4.144v-1.391h1.372v1.391Zm34.308-1.391h-1.372v-1.391h1.372v1.39Zm-1.372 0H37.08v-1.391h1.372v1.39Zm-1.372 0h-1.373v-1.391h1.372v1.39Zm-10.98 0h-1.372v-1.391h1.373v1.39Zm-1.372 0h-1.372v-1.391h1.372v1.39Zm-1.372 0h-1.372v-1.391h1.372v1.39Zm-2.744 0H19.24v-1.391h1.372v1.39Zm-1.372 0h-1.373v-1.391h1.372v1.39Z"/><path d="M17.867 36.674h-1.372v-1.391h1.372v1.39Zm-10.978 0H5.517v-1.391h1.372v1.39Zm-1.373 0H4.144v-1.391h1.372v1.39Zm-1.372 0H2.772v-1.391h1.372v1.39Zm37.053-1.391h-1.373V33.89h1.373v1.392Zm-1.373 0h-1.372V33.89h1.372v1.392Zm-1.372 0H37.08V33.89h1.372v1.392Zm-6.862 0h-1.372V33.89h1.372v1.392Zm-1.372 0h-1.372V33.89h1.372v1.392Zm-1.372 0h-1.373V33.89h1.373v1.392Zm-4.118 0h-1.372V33.89h1.372v1.392Zm-1.372 0h-1.372V33.89h1.372v1.392Zm-2.744 0H19.24V33.89h1.372v1.392Zm-1.372 0h-1.373V33.89h1.372v1.392Zm-4.117 0H13.75V33.89h1.372v1.392Zm-1.373 0h-1.372V33.89h1.372v1.392Zm-1.372 0h-1.372V33.89h1.372v1.392Zm-6.862 0H4.144V33.89h1.372v1.392Zm-1.372 0H2.772V33.89h1.372v1.392Z"/><path d="M2.772 35.283H1.399V33.89h1.373v1.392Zm39.797-1.392h-1.373V32.5h1.373v1.391Z"/><path d="M41.197 33.891h-1.373V32.5h1.373v1.391Zm-1.373 0h-1.372V32.5h1.372v1.391Zm-9.606 0h-1.372V32.5h1.372v1.391Zm-1.372 0h-1.373V32.5h1.373v1.391Zm-1.373 0h-1.372V32.5h1.372v1.391Zm-4.117 0h-1.372V32.5h1.372v1.391Zm-2.744 0H19.24V32.5h1.372v1.391Zm-4.117 0h-1.372V32.5h1.372v1.391Zm-1.372 0H13.75V32.5h1.372v1.391Zm-1.373 0h-1.372V32.5h1.372v1.391Zm-9.606 0H2.772V32.5h1.372v1.391Z"/><path d="M2.772 33.891H1.399V32.5h1.373v1.391Z"/><path d="M1.4 33.891H.027V32.5H1.4v1.391ZM42.569 32.5h-1.373v-1.391h1.373V32.5Z"/><path d="M41.197 32.5h-1.373v-1.391h1.373V32.5Zm-12.351 0h-1.373v-1.391h1.373V32.5Zm-1.373 0h-1.372v-1.391h1.372V32.5ZM26.1 32.5h-1.372v-1.391h1.373V32.5Zm-8.233 0h-1.372v-1.391h1.372V32.5Zm-1.372 0h-1.372v-1.391h1.372V32.5Zm-1.372 0H13.75v-1.391h1.372V32.5Zm-12.351 0H1.399v-1.391h1.373V32.5Z"/><path d="M1.4 32.5H.027v-1.391H1.4V32.5Zm41.169-1.391h-1.373v-1.392h1.373v1.392Zm-6.862 0h-1.372v-1.392h1.372v1.392Zm-12.351 0h-1.372v-1.392h1.372v1.392Zm-2.744 0H19.24v-1.392h1.372v1.392Zm-12.351 0H6.889v-1.392H8.26v1.392Zm-6.861 0H.027v-1.392H1.4v1.392Zm34.307-1.392h-1.372v-1.39h1.372v1.39Zm-1.372 0h-1.373v-1.39h1.373v1.39Zm-9.607 0h-1.372v-1.39h1.372v1.39Zm-1.372 0h-1.372v-1.39h1.372v1.39Zm-2.744 0H19.24v-1.39h1.372v1.39Zm-1.372 0h-1.373v-1.39h1.372v1.39Zm-9.606 0H8.26v-1.39h1.373v1.39Z"/><path d="M8.261 29.717H6.889v-1.39H8.26v1.39Zm27.446-1.391h-1.372v-1.391h1.372v1.391Zm-1.372 0h-1.373v-1.391h1.373v1.391Z"/><path d="M32.963 28.326H31.59v-1.391h1.373v1.391Zm-6.863 0h-1.372v-1.391h1.373v1.391Zm-1.372 0h-1.372v-1.391h1.372v1.391Zm-5.488 0h-1.373v-1.391h1.372v1.391ZM17.867 28.326h-1.372v-1.391h1.372v1.391Zm-6.861 0H9.633v-1.391h1.373v1.391Z"/><path d="M9.634 28.326H8.26v-1.391h1.373v1.391Z"/><path d="M8.261 28.326H6.889v-1.391H8.26v1.391Zm26.074-1.391h-1.373v-1.391h1.373v1.39Z"/><path d="M32.963 26.935H31.59v-1.391h1.373v1.39Zm-5.49 0h-1.372v-1.391h1.372v1.39Z"/><path d="M26.1 26.935h-1.372v-1.391h1.373v1.39Zm-8.233 0h-1.372v-1.391h1.372v1.39Zm-1.372 0h-1.372v-1.391h1.372v1.39Zm-5.489 0H9.633v-1.391h1.373v1.39Z"/><path d="M9.634 26.935H8.26v-1.391h1.373v1.39Zm30.19-1.391h-1.372v-1.392h1.372v1.392Zm-1.372 0H37.08v-1.392h1.372v1.392Zm-1.372 0h-1.373v-1.392h1.372v1.392Zm-4.117 0H31.59v-1.392h1.373v1.392Zm-4.117 0h-1.373v-1.392h1.373v1.392Zm-1.373 0h-1.372v-1.392h1.372v1.392Zm-10.978 0h-1.372v-1.392h1.372v1.392Zm-1.372 0H13.75v-1.392h1.372v1.392Z"/><path d="M11.006 25.544H9.633v-1.392h1.373v1.392Zm-4.117 0H5.517v-1.392h1.372v1.392Zm-1.373 0H4.144v-1.392h1.372v1.392Zm-1.372 0H2.772v-1.392h1.372v1.392Zm39.797-1.392H42.57v-1.391h1.372v1.391Zm-5.489 0H37.08v-1.391h1.372v1.391Zm-1.372 0h-1.373v-1.391h1.372v1.391Zm-1.373 0h-1.372v-1.391h1.372v1.391Zm-5.489 0h-1.372v-1.391h1.372v1.391Zm-1.372 0h-1.373v-1.391h1.373v1.391Zm-13.723 0H13.75v-1.391h1.372v1.391Zm-1.373 0h-1.372v-1.391h1.372v1.391Zm-5.489 0H6.889v-1.391H8.26v1.391Zm-1.372 0H5.517v-1.391h1.372v1.391Zm-1.373 0H4.144v-1.391h1.372v1.391Zm38.425-1.392H42.57v-1.39h1.372v1.39Zm-1.372 0h-1.373v-1.39h1.373v1.39Zm-5.489 0h-1.373v-1.39h1.372v1.39Zm-1.373 0h-1.372v-1.39h1.372v1.39Zm-1.372 0h-1.373v-1.39h1.373v1.39Zm-2.745 0h-1.372v-1.39h1.372v1.39Zm-1.372 0h-1.372v-1.39h1.372v1.39Zm-8.234 0h-1.372v-1.39h1.372v1.39Zm-8.234 0h-1.372v-1.39h1.372v1.39Zm-1.372 0h-1.372v-1.39h1.372v1.39Zm-2.744 0H8.26v-1.39h1.373v1.39Z"/><path d="M8.261 22.76H6.889v-1.39H8.26v1.39Zm-1.372 0H5.517v-1.39h1.372v1.39Zm-5.517-1.39H0v-1.392h1.372v1.392Zm1.4 0H1.399v-1.392h1.373v1.392Zm-1.4 1.39H0v-1.39h1.372v1.39Zm0-2.782H0v-1.391h1.372v1.391Zm42.569 1.392H42.57v-1.392h1.372v1.392Zm-1.372 0h-1.373v-1.392h1.373v1.392Z"/><path d="M41.197 21.37h-1.373v-1.392h1.373v1.392Zm-17.841 0h-1.372v-1.392h1.372v1.392Zm-1.372 0h-1.372v-1.392h1.372v1.392Zm-1.372 0H19.24v-1.392h1.372v1.392Zm23.329-1.392H42.57v-1.391h1.372v1.391Zm-1.372 0h-1.373v-1.391h1.373v1.391Zm-5.489 0h-1.373v-1.391h1.372v1.391Zm-1.373 0h-1.372v-1.391h1.372v1.391Zm-1.372 0h-1.373v-1.391h1.373v1.391Zm-2.745 0h-1.372v-1.391h1.372v1.391Zm-1.372 0h-1.372v-1.391h1.372v1.391Zm-8.234 0h-1.372v-1.391h1.372v1.391Zm-8.234 0h-1.372v-1.391h1.372v1.391Zm-1.372 0h-1.372v-1.391h1.372v1.391Zm-2.744 0H8.26v-1.391h1.373v1.391Z"/><path d="M8.261 19.978H6.889v-1.391H8.26v1.391Zm-1.372 0H5.517v-1.391h1.372v1.391Zm37.052-1.391H42.57v-1.391h1.372v1.39Zm-5.489 0H37.08v-1.391h1.372v1.39Zm-1.372 0h-1.373v-1.391h1.372v1.39Zm-1.373 0h-1.372v-1.391h1.372v1.39Zm-5.489 0h-1.372v-1.391h1.372v1.39Zm-1.372 0h-1.373v-1.391h1.373v1.39Zm-13.723 0H13.75v-1.391h1.372v1.39Zm-1.373 0h-1.372v-1.391h1.372v1.39Zm-5.489 0H6.889v-1.391H8.26v1.39Zm-1.372 0H5.517v-1.391h1.372v1.39Zm-1.373 0H4.144v-1.391h1.372v1.39Zm34.308-1.391h-1.372v-1.392h1.372v1.392ZM38.452 17.196H37.08v-1.392h1.372v1.392Zm-1.372 0h-1.373v-1.392h1.372v1.392Zm-4.117 0H31.59v-1.392h1.373v1.392Zm-4.117 0h-1.373v-1.392h1.373v1.392Zm-1.373 0h-1.372v-1.392h1.372v1.392Zm-10.978 0h-1.372v-1.392h1.372v1.392Zm-1.372 0H13.75v-1.392h1.372v1.392Zm-4.117 0H9.633v-1.392h1.373v1.392Zm-4.117 0H5.517v-1.392h1.372v1.392Zm-1.373 0H4.144v-1.392h1.372v1.392Zm-1.372 0H2.772v-1.392h1.372v1.392Zm30.191-1.392h-1.373v-1.391h1.373v1.391Z"/><path d="M32.963 15.804H31.59v-1.391h1.373v1.391Zm-5.49 0h-1.372v-1.391h1.372v1.391Z"/><path d="M26.1 15.804h-1.372v-1.391h1.373v1.391Zm-8.233 0h-1.372v-1.391h1.372v1.391Zm-1.372 0h-1.372v-1.391h1.372v1.391Zm-5.489 0H9.633v-1.391h1.373v1.391Z"/><path d="M9.634 15.804H8.26v-1.391h1.373v1.391Zm26.073-1.391h-1.372v-1.391h1.372v1.391Zm-1.372 0h-1.373v-1.391h1.373v1.391Z"/><path d="M32.963 14.413H31.59v-1.391h1.373v1.391Zm-6.863 0h-1.372v-1.391h1.373v1.391Zm-1.372 0h-1.372v-1.391h1.372v1.391Zm-5.488 0h-1.373v-1.391h1.372v1.391ZM17.867 14.413h-1.372v-1.391h1.372v1.391Zm-6.861 0H9.633v-1.391h1.373v1.391Z"/><path d="M9.634 14.413H8.26v-1.391h1.373v1.391Z"/><path d="M8.261 14.413H6.889v-1.391H8.26v1.391Zm27.446-1.391h-1.372V11.63h1.372v1.392Zm-1.372 0h-1.373V11.63h1.373v1.392Zm-9.607 0h-1.372V11.63h1.372v1.392Zm-1.372 0h-1.372V11.63h1.372v1.392Zm-2.744 0H19.24V11.63h1.372v1.392Zm-1.372 0h-1.373V11.63h1.372v1.392Zm-9.606 0H8.26V11.63h1.373v1.392Z"/><path d="M8.261 13.022H6.889V11.63H8.26v1.392Zm27.446-1.392h-1.372v-1.39h1.372v1.39Zm-12.351 0h-1.372v-1.39h1.372v1.39Zm-2.744 0H19.24v-1.39h1.372v1.39Zm-12.351 0H6.889v-1.39H8.26v1.39Zm34.308-1.39h-1.373V8.847h1.373v1.391Zm-41.169 0H.027V8.847H1.4v1.391Z"/><path d="M42.569 8.848h-1.373V7.456h1.373v1.392Z"/><path d="M41.197 8.848h-1.373V7.456h1.373v1.392Zm-12.351 0h-1.373V7.456h1.373v1.392Zm-1.373 0h-1.372V7.456h1.372v1.392ZM26.1 8.848h-1.372V7.456h1.373v1.392Zm-8.233 0h-1.372V7.456h1.372v1.392Zm-1.372 0h-1.372V7.456h1.372v1.392Zm-1.372 0H13.75V7.456h1.372v1.392Zm-12.351 0H1.399V7.456h1.373v1.392Z"/><path d="M1.4 8.848H.027V7.456H1.4v1.392Zm41.169-1.391h-1.373V6.065h1.373v1.392Z"/><path d="M41.197 7.457h-1.373V6.065h1.373v1.392Zm-1.373 0h-1.372V6.065h1.372v1.392Zm-9.606 0h-1.372V6.065h1.372v1.392Zm-1.372 0h-1.373V6.065h1.373v1.392Zm-1.373 0h-1.372V6.065h1.372v1.392Zm-4.117 0h-1.372V6.065h1.372v1.392Zm-2.744 0H19.24V6.065h1.372v1.392Zm-4.117 0h-1.372V6.065h1.372v1.392Zm-1.372 0H13.75V6.065h1.372v1.392Zm-1.373 0h-1.372V6.065h1.372v1.392Zm-9.606 0H2.772V6.065h1.372v1.392Z"/><path d="M2.772 7.457H1.399V6.065h1.373v1.392Z"/><path d="M1.4 7.457H.027V6.065H1.4v1.392Zm39.797-1.392h-1.373V4.674h1.373v1.391Zm-1.373 0h-1.372V4.674h1.372v1.391Zm-1.372 0H37.08V4.674h1.372v1.391Zm-6.862 0h-1.372V4.674h1.372v1.391Zm-1.372 0h-1.372V4.674h1.372v1.391Zm-1.372 0h-1.373V4.674h1.373v1.391Zm-4.118 0h-1.372V4.674h1.372v1.391Zm-1.372 0h-1.372V4.674h1.372v1.391Zm-2.744 0H19.24V4.674h1.372v1.391Zm-1.372 0h-1.373V4.674h1.372v1.391Zm-4.117 0H13.75V4.674h1.372v1.391Zm-1.373 0h-1.372V4.674h1.372v1.391Zm-1.372 0h-1.372V4.674h1.372v1.391Zm-6.862 0H4.144V4.674h1.372v1.391Zm-1.372 0H2.772V4.674h1.372v1.391Z"/><path d="M2.772 6.065H1.399V4.674h1.373v1.391Zm37.052-1.391h-1.372V3.283h1.372v1.39Zm-1.372 0H37.08V3.283h1.372v1.39Zm-1.372 0h-1.373V3.283h1.372v1.39Zm-10.98 0h-1.372V3.283h1.373v1.39Zm-1.372 0h-1.372V3.283h1.372v1.39Zm-1.372 0h-1.372V3.283h1.372v1.39Zm-2.744 0H19.24V3.283h1.372v1.39Zm-1.372 0h-1.373V3.283h1.372v1.39Z"/><path d="M17.867 4.674h-1.372V3.283h1.372v1.39Zm-10.978 0H5.517V3.283h1.372v1.39Zm-1.373 0H4.144V3.283h1.372v1.39Zm-1.372 0H2.772V3.283h1.372v1.39Zm39.797-1.391H42.57V1.89h1.372v1.392Zm-5.489 0H37.08V1.89h1.372v1.392Zm-1.372 0h-1.373V1.89h1.372v1.392Zm-1.373 0h-1.372V1.89h1.372v1.392Zm-9.607 0h-1.372V1.89h1.373v1.392Zm-1.372 0h-1.372V1.89h1.372v1.392Zm-5.488 0h-1.373V1.89h1.372v1.392Z"/><path d="M17.867 3.283h-1.372V1.89h1.372v1.392Zm-9.606 0H6.889V1.89H8.26v1.392Zm-1.372 0H5.517V1.89h1.372v1.392Zm-1.373 0H4.144V1.89h1.372v1.392Zm38.425-1.392H42.57V.5h1.372v1.391Zm-1.372 0h-1.373V.5h1.373v1.391Zm-5.489 0h-1.373V.5h1.372v1.391Zm-1.373 0h-1.372V.5h1.372v1.391Zm-1.372 0h-1.373V.5h1.373v1.391Zm-8.235 0h-1.372V.5h1.373v1.391Z"/><path d="M17.867 1.891h-1.372V.5h1.372v1.391Zm-8.233 0H8.26V.5h1.373v1.391Z"/><path d="M8.261 1.891H6.889V.5H8.26v1.391Zm-1.372 0H5.517V.5h1.372v1.391Zm-5.489 0H.027V.5H1.4v1.391Z"/></g><defs><clipPath id="a"><path fill="#fff" d="M0 .5h44v39H0z"/></clipPath></defs></svg>