<svg xmlns="http://www.w3.org/2000/svg" width="64" height="64" fill="none">
  <path fill="#ECD979" d="M31.129 3.546a1 1 0 0 1 1.742 0l3.462 6.144a1 1 0 0 0 1.443.33l5.785-4.034a1 1 0 0 1 1.57.756l.453 7.038a1 1 0 0 0 1.157.922l6.962-1.124a1 1 0 0 1 1.086 1.363l-2.645 6.537a1 1 0 0 0 .642 1.333l6.76 2.008a1 1 0 0 1 .388 1.699l-5.22 4.742a1 1 0 0 0 0 1.48l5.22 4.742a1 1 0 0 1-.387 1.699l-6.76 2.008a1 1 0 0 0-.643 1.333l2.645 6.538a1 1 0 0 1-1.086 1.362l-6.962-1.124a1 1 0 0 0-1.157.922l-.453 7.038a1 1 0 0 1-1.57.756l-5.785-4.034a1 1 0 0 0-1.443.33l-3.462 6.144a1 1 0 0 1-1.742 0l-3.462-6.144a1 1 0 0 0-1.443-.33l-5.785 4.034a1 1 0 0 1-1.57-.756l-.453-7.038a1 1 0 0 0-1.157-.922l-6.962 1.124a1 1 0 0 1-1.086-1.362l2.645-6.538a1 1 0 0 0-.642-1.333l-6.76-2.008a1 1 0 0 1-.388-1.699l5.22-4.742a1 1 0 0 0 0-1.48l-5.22-4.742a1 1 0 0 1 .388-1.699l6.76-2.008a1 1 0 0 0 .642-1.333L9.21 14.94a1 1 0 0 1 1.086-1.362l6.962 1.124a1 1 0 0 0 1.157-.922l.453-7.038a1 1 0 0 1 1.57-.756l5.785 4.034a1 1 0 0 0 1.443-.33l3.462-6.144Z"/>
</svg>
