<svg aria-hidden="true" style="position: absolute; width: 0; height: 0; overflow: hidden;" version="1.1" xmlns="http://www.w3.org/2000/svg" xmlns:xlink="http://www.w3.org/1999/xlink">
<defs>
<symbol id="icon-logo-favicon" viewBox="0 0 32 32">
<path fill="#ecd979" style="fill: var(--color1, #ecd979)" d="M15.565 1.773c0.087-0.153 0.25-0.254 0.435-0.254s0.348 0.101 0.434 0.252l0.001 0.002 1.731 3.072c0.087 0.153 0.25 0.255 0.436 0.255 0.107 0 0.206-0.034 0.287-0.091l-0.002 0.001 2.893-2.017c0.080-0.056 0.179-0.090 0.286-0.090 0.265 0 0.482 0.206 0.499 0.466l0 0.002 0.227 3.519c0.018 0.262 0.234 0.467 0.499 0.467 0.028 0 0.056-0.002 0.082-0.007l-0.003 0 3.481-0.562c0.024-0.004 0.052-0.006 0.080-0.006 0.276 0 0.5 0.224 0.5 0.5 0 0.068-0.013 0.132-0.038 0.191l0.001-0.003-1.323 3.269c-0.023 0.055-0.036 0.12-0.036 0.187 0 0.225 0.149 0.416 0.354 0.478l0.004 0.001 3.38 1.004c0.209 0.063 0.358 0.254 0.358 0.479 0 0.147-0.063 0.278-0.163 0.37l-0 0-2.61 2.371c-0.101 0.092-0.164 0.224-0.164 0.37s0.063 0.278 0.163 0.37l0 0 2.61 2.371c0.101 0.092 0.164 0.224 0.164 0.37 0 0.225-0.149 0.416-0.354 0.478l-0.004 0.001-3.38 1.004c-0.209 0.063-0.358 0.254-0.358 0.479 0 0.067 0.013 0.132 0.038 0.19l-0.001-0.003 1.323 3.269c0.023 0.055 0.036 0.12 0.036 0.187 0 0.276-0.224 0.5-0.5 0.5-0.028 0-0.056-0.002-0.082-0.007l0.003 0-3.481-0.562c-0.024-0.004-0.051-0.006-0.080-0.006-0.265 0-0.481 0.206-0.499 0.466l-0 0.002-0.227 3.519c-0.017 0.262-0.234 0.468-0.499 0.468-0.107 0-0.206-0.034-0.288-0.091l0.002 0.001-2.893-2.017c-0.080-0.056-0.179-0.090-0.286-0.090-0.186 0-0.348 0.102-0.434 0.252l-0.001 0.002-1.731 3.072c-0.087 0.153-0.25 0.254-0.436 0.254s-0.348-0.101-0.434-0.252l-0.001-0.002-1.731-3.072c-0.087-0.153-0.25-0.255-0.436-0.255-0.107 0-0.206 0.034-0.287 0.091l0.002-0.001-2.893 2.017c-0.080 0.056-0.179 0.090-0.286 0.090-0.265 0-0.482-0.206-0.499-0.466l-0-0.002-0.226-3.519c-0.018-0.262-0.234-0.467-0.499-0.467-0.028 0-0.056 0.002-0.082 0.007l0.003-0-3.481 0.562c-0.024 0.004-0.051 0.006-0.079 0.006-0.276 0-0.5-0.224-0.5-0.5 0-0.068 0.013-0.132 0.038-0.191l-0.001 0.003 1.322-3.269c0.023-0.055 0.036-0.12 0.036-0.187 0-0.225-0.149-0.416-0.354-0.478l-0.004-0.001-3.38-1.004c-0.209-0.063-0.358-0.254-0.358-0.479 0-0.147 0.063-0.278 0.163-0.37l0-0 2.61-2.371c0.101-0.092 0.164-0.224 0.164-0.37s-0.063-0.278-0.163-0.37l-0-0-2.61-2.371c-0.101-0.092-0.164-0.224-0.164-0.37 0-0.225 0.149-0.416 0.354-0.478l0.004-0.001 3.38-1.004c0.208-0.063 0.357-0.254 0.357-0.479 0-0.068-0.013-0.132-0.038-0.191l0.001 0.003-1.323-3.269c-0.023-0.055-0.036-0.12-0.036-0.187 0-0.276 0.224-0.5 0.5-0.5 0.028 0 0.056 0.002 0.082 0.007l-0.003-0 3.481 0.562c0.024 0.004 0.051 0.006 0.080 0.006 0.265 0 0.481-0.206 0.499-0.466l0-0.002 0.226-3.519c0.017-0.262 0.234-0.468 0.499-0.468 0.107 0 0.206 0.034 0.288 0.091l-0.002-0.001 2.893 2.017c0.080 0.056 0.179 0.090 0.286 0.090 0.186 0 0.348-0.102 0.434-0.252l0.001-0.002 1.731-3.072z"></path>
</symbol>
</defs>
</svg>
